<svg width="156" height="32" xmlns="http://www.w3.org/2000/svg" preserveAspectRatio="xMidYMid meet" class="el-tooltip">
 <g>
  <title>background</title>
  <rect x="-1" y="-1" width="158" height="34" id="canvas_background" fill="none"/>
 </g>

 <g>
  <title>Layer 1</title>
  <rect x="-1" y="1" width="340" height="250" fill="none" id="svg_3"/>
  <g fill="#65513c" class="icon-svg-group iconsvg" id="svg_4">
   <g id="svg_28">
    <g class="tp-name iconsvg-namesvg" id="svg_29">
     <g id="svg_30">
      <path d="m10.3375,1.15625l0,0q3.75,0 5.94,2.03l0,0l0,0q2.35,2.19 2.35,5.47l0,0l0,0q0,5.15 -4.54,6.72l0,0l0,0q2.35,0.62 3.75,2.5l0,0l0,0q1.41,1.87 1.41,4.37l0,0l0,0q0,3.75 -2.66,6.09l0,0l0,0q-2.5,2.51 -6.56,2.51l0,0l0,0q-3.44,0 -5.78,-1.88l0,0l0,0q-3.28,-2.34 -3.44,-7.19l0,0l0.94,0l0,0q0.16,4.22 3.13,6.41l0,0l0,0q2.18,1.72 5.15,1.72l0,0l0,0q3.6,0 5.94,-2.19l0,0l0,0q2.34,-2.19 2.34,-5.47l0,0l0,0q0,-2.81 -2.03,-4.69l0,0l0,0q-2.03,-1.72 -5.31,-1.72l0,0l-2.81,0l0,-1.09l2.34,0l0,0q3.44,0 5.31,-1.56l0,0l0,0q1.88,-1.72 1.88,-4.53l0,0l0,0q0,-2.82 -2.03,-4.69l0,0l0,0q-2.03,-1.88 -5.32,-1.88l0,0l0,0q-3.43,0 -5.46,2.04l0,0l0,0q-2.04,1.87 -2.5,5.31l0,0l-0.94,0l0,0q0.47,-3.75 2.81,-6.1l0,0l0,0q2.19,-2.18 6.09,-2.18l0,0zm24.22,0l0,0q7.03,0 8.44,7.34l0,0l-1.09,0l0,0q-1.1,-6.41 -7.5,-6.41l0,0l0,0q-4.07,0 -6.41,4.22l0,0l0,0q-2.19,3.91 -2.19,10.32l0,0l0,0q0,0.93 0,2.03l0,0l0.16,0l0,0q0.78,-2.97 3.12,-4.85l0,0l0,0q2.35,-1.87 5.47,-1.87l0,0l0,0q3.91,0 6.41,2.65l0,0l0,0q2.34,2.5 2.34,6.57l0,0l0,0q0,4.06 -2.34,6.87l0,0l0,0q-2.5,2.82 -6.56,2.82l0,0l0,0q-5.16,0 -7.5,-4.07l0,0l0,0q-2.19,-3.59 -2.19,-10.15l0,0l0,0q0,-6.57 2.5,-10.79l0,0l0,0q2.5,-4.68 7.34,-4.68l0,0zm0,11.72l0,0q-3.28,0 -5.62,2.5l0,0l0,0q-2.5,2.34 -2.5,5.78l0,0l0,0q0,3.43 2.03,5.93l0,0l0,0q2.34,2.82 5.94,2.82l0,0l0,0q3.59,0 5.78,-2.5l0,0l0,0q2.19,-2.66 2.19,-6.25l0,0l0,0q0,-3.6 -2.19,-5.94l0,0l0,0q-2.19,-2.34 -5.63,-2.34l0,0zm15.16,4.06l1.41,-15.31l15.31,0l0,0.93l-14.38,0l-1.25,12.35l0.16,0l0,0q1.25,-1.57 3.28,-2.5l0,0l0,0q1.88,-0.78 3.91,-0.78l0,0l0,0q4.06,0 6.56,2.34l0,0l0,0q2.66,2.66 2.66,7.19l0,0l0,0q0,4.22 -2.66,6.87l0,0l0,0q-2.66,2.82 -6.72,2.82l0,0l0,0q-3.44,0 -6.09,-2.04l0,0l0,0q-2.66,-2.18 -2.97,-5.93l0,0l0.94,0l0,0q0.31,3.28 2.65,5.15l0,0l0,0q2.35,1.88 5.47,1.88l0,0l0,0q3.75,0 6.09,-2.5l0,0l0,0q2.35,-2.66 2.35,-6.25l0,0l0,0q0,-4.22 -2.35,-6.41l0,0l0,0q-2.18,-2.19 -5.93,-2.19l0,0l0,0q-2.35,0 -4.38,1.1l0,0l0,0q-2.03,1.25 -2.97,3.28l0,0l-1.09,0zm23.44,13.28l0,-28.59l18.59,0l0,0.93l-17.66,0l0,12.35l16.72,0l0,0.93l-16.72,0l0,14.38l-0.93,0zm23.28,0l0,-28.59l0.94,0l0,28.59l-0.94,0zm7.5,0l0,-28.59l0.94,0l0,27.65l18.43,0l0,0.94l-19.37,0zm23.28,0l0,-28.59l1.72,0l12.19,27.5l0.15,0l12.03,-27.5l1.88,0l0,28.59l-1.1,0l0,-27.66l0,0l-12.34,27.66l-1.25,0l-12.19,-27.66l-0.15,0l0,27.66l-0.94,0z" id="svg_31"/>
     </g>
     <!---->
     <!---->
     <!---->
     <!---->
     <!---->
     <!---->
     <!---->
    </g>
    <!---->
   </g>
  </g>
 </g>
</svg>