<svg width="160" height="100" xmlns="http://www.w3.org/2000/svg" class="el-tooltip" preserveAspectRatio="xMidYMid meet">

 <g>
  <title>background</title>
  <rect fill="none" id="canvas_background" height="102" width="162" y="-1" x="-1"/>
 </g>
 <g>
  <title>Layer 1</title>
  <rect id="svg_3" fill="none" height="100" width="160" y="0.499997" x="-0.499997"/>
  <g id="svg_4" class="icon-svg-group iconsvg" fill="#65513c">
   <g id="svg_5" class="iconsvg-imagesvg">
    <rect id="svg_6" height="60" width="60" y="0.654151" x="50.000477" stroke-width="2" fill-opacity="0" fill="#65513c"/>
    <svg id="svg_7" class="imagesvg-svg" height="60" width="60" y="0.654151" x="50.000477">
     <svg id="svg_8" viewBox="0 0 361.786 361.786">
      <path id="svg_9" fill="#007348" d="m223.69,211.422c-6.629,0 -12.721,-4.374 -14.609,-11.069l-10.597,-37.548c-2.109,-7.474 1.758,-15.333 8.966,-18.225l33.679,-13.5c7.785,-3.123 16.628,0.66 19.749,8.446c3.122,7.786 -0.66,16.63 -8.446,19.75l-21.004,8.42l6.887,24.407c2.279,8.072 -2.42,16.466 -10.492,18.743a15.129,15.129 0 0 1 -4.133,0.576zm-98.097,0c-6.629,0 -12.721,-4.374 -14.609,-11.069l-10.597,-37.548c-2.109,-7.474 1.759,-15.333 8.966,-18.225l33.679,-13.5c7.785,-3.123 16.628,0.66 19.749,8.446c3.122,7.786 -0.66,16.63 -8.446,19.75l-21.003,8.42l6.887,24.407c2.279,8.072 -2.419,16.466 -10.492,18.743a15.136,15.136 0 0 1 -4.134,0.576z"/>
      <path id="svg_10" fill="#65513c" d="m361.786,186.105l-361.786,0l0,38.187l258.534,0l34.38,34.381a6.928,6.928 0 0 0 4.915,2.034a6.952,6.952 0 0 0 4.915,-11.866l-24.55,-24.549l83.592,0l0,-38.187z"/>
      <path id="svg_11" fill="#00945e" d="m292.373,238.469c-10.267,10.266 -10.267,26.906 0,37.173c10.264,10.268 26.907,10.268 37.173,0l-37.173,-37.173z"/>
      <path id="svg_12" fill="#05ce7c" d="m305.605,62.869c-15.373,-18.734 -37.723,-31.528 -63.08,-34.403l-0.003,0a9.326,9.326 0 0 0 -1.355,-0.096c-5.309,0 -9.614,4.303 -9.614,9.612l0,29.45c-15.624,-7.523 -33.14,-11.738 -51.642,-11.738l-32.469,0c-65.828,0 -119.192,53.363 -119.192,119.191l0,80.689c0,42.922 34.919,77.842 77.842,77.842c35.942,0 65.185,-29.241 65.185,-65.184c0,-30.361 -24.7,-55.061 -55.059,-55.061c-25.893,0 -46.958,21.066 -46.958,46.959c0,22.319 18.158,40.478 40.477,40.478c8.039,0 14.556,-6.517 14.556,-14.556c0,-8.04 -6.518,-14.557 -14.556,-14.557c-6.267,0 -11.367,-5.099 -11.367,-11.366c0,-9.84 8.006,-17.847 17.847,-17.847c14.308,0 25.947,11.64 25.947,25.948c0,19.89 -16.183,36.072 -36.073,36.072c-26.87,0 -48.731,-21.861 -48.731,-48.73l0,-80.689l244.402,0c30.972,0 56.081,-25.11 56.081,-56.082c0.001,-29.675 -23.06,-53.955 -52.238,-55.932z"/>
      <path id="svg_13" fill="#00945e" d="m201.879,211.422c-6.629,0 -12.722,-4.374 -14.61,-11.069l-10.596,-37.548c-2.109,-7.474 1.759,-15.333 8.965,-18.225l33.679,-13.5c7.786,-3.123 16.629,0.66 19.75,8.446s-0.66,16.63 -8.446,19.75l-21.003,8.42l6.887,24.407c2.279,8.072 -2.419,16.466 -10.493,18.743a15.134,15.134 0 0 1 -4.133,0.576zm-98.097,0c-6.629,0 -12.721,-4.374 -14.61,-11.069l-10.596,-37.548c-2.11,-7.474 1.758,-15.333 8.965,-18.225l33.678,-13.5c7.785,-3.123 16.629,0.66 19.75,8.446c3.121,7.786 -0.66,16.63 -8.446,19.75l-21.003,8.42l6.886,24.407c2.279,8.072 -2.419,16.466 -10.492,18.743a15.122,15.122 0 0 1 -4.132,0.576z"/>
      <circle id="svg_14" fill="#00945e" r="17.275" cy="102.036" cx="290.893"/>
      <circle id="svg_15" fill="#333e48" r="5.011" cy="97.35" cx="285.45"/>
      <g id="svg_16" fill="#28b07f">
       <circle id="svg_17" r="2.785" cy="87.547" cx="116.279"/>
       <circle id="svg_18" r="2.786" cy="67.579" cx="123.533"/>
       <circle id="svg_19" r="2.785" cy="90.333" cx="85.499"/>
       <path id="svg_20" d="m100.624,78.722a2.786,2.786 0 1 0 -5.571,-0.003a2.786,2.786 0 0 0 5.571,0.003z"/>
       <circle id="svg_21" r="2.785" cy="73.149" cx="139.279"/>
       <circle id="svg_22" r="2.785" cy="67.579" cx="206.951"/>
       <circle id="svg_23" r="2.785" cy="87.545" cx="200.696"/>
       <circle id="svg_24" r="2.785" cy="84.761" cx="147.635"/>
       <circle id="svg_25" r="2.785" cy="66.313" cx="163.676"/>
       <path id="svg_26" d="m188.585,70.364a2.786,2.786 0 1 0 -5.572,-0.002a2.786,2.786 0 0 0 5.572,0.002z"/>
       <circle id="svg_27" r="2.785" cy="84.761" cx="176.1"/>
      </g>
     </svg>
    </svg>
    <!---->
   </g>
   <g id="svg_28">
    <g id="svg_29" class="tp-name iconsvg-namesvg">
     <g id="svg_30">
      <path id="svg_31" d="m12.337975,67.656651l0,0q3.75,0 5.94,2.03l0,0l0,0q2.35,2.19 2.35,5.47l0,0l0,0q0,5.15 -4.54,6.72l0,0l0,0q2.35,0.62 3.75,2.5l0,0l0,0q1.41,1.87 1.41,4.37l0,0l0,0q0,3.75 -2.66,6.09l0,0l0,0q-2.5,2.51 -6.56,2.51l0,0l0,0q-3.44,0 -5.78,-1.88l0,0l0,0q-3.28,-2.34 -3.44,-7.19l0,0l0.94,0l0,0q0.16,4.22 3.13,6.41l0,0l0,0q2.18,1.72 5.15,1.72l0,0l0,0q3.6,0 5.94,-2.19l0,0l0,0q2.34,-2.19 2.34,-5.47l0,0l0,0q0,-2.81 -2.03,-4.69l0,0l0,0q-2.03,-1.72 -5.31,-1.72l0,0l-2.81,0l0,-1.09l2.34,0l0,0q3.44,0 5.31,-1.56l0,0l0,0q1.88,-1.72 1.88,-4.53l0,0l0,0q0,-2.82 -2.03,-4.69l0,0l0,0q-2.03,-1.88 -5.32,-1.88l0,0l0,0q-3.43,0 -5.46,2.04l0,0l0,0q-2.04,1.87 -2.5,5.31l0,0l-0.94,0l0,0q0.47,-3.75 2.81,-6.1l0,0l0,0q2.19,-2.18 6.09,-2.18l0,0zm24.22,0l0,0q7.03,0 8.44,7.34l0,0l-1.09,0l0,0q-1.1,-6.41 -7.5,-6.41l0,0l0,0q-4.07,0 -6.41,4.22l0,0l0,0q-2.19,3.91 -2.19,10.32l0,0l0,0q0,0.93 0,2.03l0,0l0.16,0l0,0q0.78,-2.97 3.12,-4.85l0,0l0,0q2.35,-1.87 5.47,-1.87l0,0l0,0q3.91,0 6.41,2.65l0,0l0,0q2.34,2.5 2.34,6.57l0,0l0,0q0,4.06 -2.34,6.87l0,0l0,0q-2.5,2.82 -6.56,2.82l0,0l0,0q-5.16,0 -7.5,-4.07l0,0l0,0q-2.19,-3.59 -2.19,-10.15l0,0l0,0q0,-6.57 2.5,-10.79l0,0l0,0q2.5,-4.68 7.34,-4.68l0,0zm0,11.72l0,0q-3.28,0 -5.62,2.5l0,0l0,0q-2.5,2.34 -2.5,5.78l0,0l0,0q0,3.43 2.03,5.93l0,0l0,0q2.34,2.82 5.94,2.82l0,0l0,0q3.59,0 5.78,-2.5l0,0l0,0q2.19,-2.66 2.19,-6.25l0,0l0,0q0,-3.6 -2.19,-5.94l0,0l0,0q-2.19,-2.34 -5.63,-2.34l0,0zm15.16,4.06l1.41,-15.31l15.31,0l0,0.93l-14.38,0l-1.25,12.35l0.16,0l0,0q1.25,-1.57 3.28,-2.5l0,0l0,0q1.88,-0.78 3.91,-0.78l0,0l0,0q4.06,0 6.56,2.34l0,0l0,0q2.66,2.66 2.66,7.19l0,0l0,0q0,4.22 -2.66,6.87l0,0l0,0q-2.66,2.82 -6.72,2.82l0,0l0,0q-3.44,0 -6.09,-2.04l0,0l0,0q-2.66,-2.18 -2.97,-5.93l0,0l0.94,0l0,0q0.31,3.28 2.65,5.15l0,0l0,0q2.35,1.88 5.47,1.88l0,0l0,0q3.75,0 6.09,-2.5l0,0l0,0q2.35,-2.66 2.35,-6.25l0,0l0,0q0,-4.22 -2.35,-6.41l0,0l0,0q-2.18,-2.19 -5.93,-2.19l0,0l0,0q-2.35,0 -4.38,1.1l0,0l0,0q-2.03,1.25 -2.97,3.28l0,0l-1.09,0zm23.44,13.28l0,-28.59l18.59,0l0,0.93l-17.66,0l0,12.35l16.72,0l0,0.93l-16.72,0l0,14.38l-0.93,0zm23.28,0l0,-28.59l0.94,0l0,28.59l-0.94,0zm7.5,0l0,-28.59l0.94,0l0,27.65l18.43,0l0,0.94l-19.37,0zm23.28,0l0,-28.59l1.72,0l12.19,27.5l0.15,0l12.03,-27.5l1.88,0l0,28.59l-1.1,0l0,-27.66l0,0l-12.34,27.66l-1.25,0l-12.19,-27.66l-0.15,0l0,27.66l-0.94,0z"/>
     </g>
     <!---->
     <!---->
     <!---->
     <!---->
     <!---->
     <!---->
     <!---->
    </g>
    <!---->
   </g>
  </g>
 </g>
</svg>